HIERARCHY
ROOT pelvis
{
  OFFSET 0 100 0
  CHANNELS 6 Xposition Yposition Zposition Zrotation Xrotation Yrotation
  JOINT pelvis_right_femur
  {
    OFFSET -10.78128 -3.44521 -0.5502486
    CHANNELS 3 Zrotation Xrotation Yrotation
    JOINT right_femur_tibia
    {
      OFFSET -0.8047443 -44.0398 -0.1307829
      CHANNELS 3 Zrotation Xrotation Yrotation
      JOINT right_tibia_foot
      {
        OFFSET 3.006224 -47.83518 -5
        CHANNELS 3 Zrotation Xrotation Yrotation
        End Site
        {
          OFFSET 0 -5 15
        }
      }
    }
  }
  JOINT pelvis_left_femur
  {
    OFFSET 10.78128 -3.44521 -0.5502486
    CHANNELS 3 Zrotation Xrotation Yrotation
    JOINT left_femur_tibia
    {
      OFFSET 0.8047443 -44.0398 -0.1307829
      CHANNELS 3 Zrotation Xrotation Yrotation
      JOINT left_tibia_foot
      {
        OFFSET -4.370144 -48.10324 -4.275266
        CHANNELS 3 Zrotation Xrotation Yrotation
        End Site
        {
          OFFSET 0 -5 15
        }
      }
    }
  }
  JOINT pelvis_spine1
  {
    OFFSET 0 6.468898 -3.129235
    CHANNELS 3 Zrotation Xrotation Yrotation
    JOINT spine1
    {
      OFFSET 0 23.15396 4.99043
      CHANNELS 3 Zrotation Xrotation Yrotation
      JOINT spine2
      {
        OFFSET 0 20.79997 -5.064912
        CHANNELS 3 Zrotation Xrotation Yrotation
        JOINT neck
        {
          OFFSET 0 14.38658 9.616178
          CHANNELS 3 Zrotation Xrotation Yrotation
          End Site
          {
            OFFSET 0 20 0
          }
        }
      }
      JOINT right_manubrium
      {
        OFFSET -5.722621 16.35077 3.967754
        CHANNELS 3 Zrotation Xrotation Yrotation
        JOINT right_clavicle
        {
          OFFSET -13.16364 1.694482 -4.693211
          CHANNELS 3 Zrotation Xrotation Yrotation
          JOINT right_humerus
          {
            OFFSET -28.5034 -0.3100689 -2.792744
            CHANNELS 3 Zrotation Xrotation Yrotation
            JOINT right_radius
            {
              OFFSET -25.15693 0.02248979 -1.271978
              CHANNELS 3 Zrotation Xrotation Yrotation
              End Site
              {
                OFFSET -15 0 0
              }
            }
          }
        }
      }
      JOINT left_manubrium
      {
        OFFSET 5.722621 16.35077 3.967754
        CHANNELS 3 Zrotation Xrotation Yrotation
        JOINT left_clavicle
        {
          OFFSET 13.16364 1.694482 -4.693211
          CHANNELS 3 Zrotation Xrotation Yrotation
          JOINT left_humerus
          {
            OFFSET 29.39168 -1.063119 -2.237045
            CHANNELS 3 Zrotation Xrotation Yrotation
            JOINT left_radius
            {
              OFFSET 24.59957 -0.9528479 0.9047498
              CHANNELS 3 Zrotation Xrotation Yrotation
              End Site
              {
                OFFSET 15 -0 -0
              }
            }
          }
        }
      }
    }
  }
}
MOTION
Frames: 9
Frame Time: 0.0416666666667
-264.1549 104.1989 2964.45 -1.837972 -6.849335 -19.51151 0.8691475 -16.39452 0.8863924 -0 40.85174 -0 -5.266869 3.862716 -4.807611 -5.150925 6.374515 -8.42363 -0 13.16038 -0 1.439487 -15.40002 16.44664 -3.837661 -1.049113 6.403058 0.1555966 8.555645 -3.246899 1.028584 23.75335 6.615699 3.455035 -19.0582 7.824554 5.072234 -19.98923 11.19551 78.06684 38.37863 -2.817565 -0 0 19.82795 -17.81769 8.603107 10.86809 3.670758 -15.91367 -0.7523291 -94.2737 16.49842 25.66143 -0 0 0.3546258 9.641357 14.66976 -0.3196066
-265.5734 103.4939 2969.574 -1.408534 -6.386842 -18.87247 0.6010935 -20.97991 -0.2427238 -0 30.12071 -0 -4.952286 2.014003 -5.136245 -5.257849 9.628425 -8.084001 -0 11.97495 -0 1.018 -17.48752 15.26729 -3.837618 -1.045002 6.403464 0.1529277 8.557889 -3.243573 1.030574 23.75621 6.613122 3.455512 -19.05353 7.823543 5.072063 -19.98735 11.19398 78.06955 38.38513 -2.814923 -0 0 19.8231 -17.81674 8.602239 10.86503 3.667421 -15.91061 -0.7579865 -94.27278 16.49711 25.66045 -0 0 0.3602127 9.643792 14.66886 -0.3213764
-267.1886 102.278 2974.974 -0.7164902 -5.848571 -18.30079 0.1416273 -23.9496 -1.590287 -0 19.67284 -0 -4.697136 0.9495299 -5.278745 -5.566535 12.39003 -7.746531 -0 12.09673 -0 0.3694631 -19.28486 14.10527 -3.837788 -1.041213 6.403861 0.1504688 8.559627 -3.240247 1.032248 23.75904 6.611003 3.456091 -19.0489 7.822599 5.071837 -19.98586 11.19262 78.07132 38.39113 -2.811103 -0 0 19.81918 -17.81638 8.601197 10.86257 3.664287 -15.9075 -0.7629951 -94.27232 16.49495 25.66022 -0 0 0.3671367 9.646367 14.66824 -0.3237697
-269.0612 100.8326 2980.758 -0.06148674 -5.308145 -17.75781 -0.07548575 -25.39159 -2.726384 -0 11.61517 -0 -4.735356 0.7908114 -5.357127 -5.874463 14.74776 -7.39338 -0 14.0406 -0 -0.4674447 -20.23877 13.06399 -3.838219 -1.037868 6.404248 0.1482813 8.560684 -3.236913 1.033491 23.76181 6.609502 3.456793 -19.04433 7.82173 5.071528 -19.98489 11.19151 78.07173 38.3963 -2.805625 -0 0 19.81655 -17.81696 8.599961 10.86109 3.661433 -15.90433 -0.7671128 -94.27246 16.49176 25.66097 -0 0 0.3757321 9.648968 14.66792 -0.3268113
-271.2213 99.50828 2986.943 0.2325712 -4.867942 -17.26001 0.3831326 -25.50877 -3.17784 -0 7.316988 -0 -5.178001 1.293766 -5.489657 -5.945347 16.59312 -6.995226 -0 18.26001 -0 -1.398584 -19.85091 12.2665 -3.838948 -1.035072 6.404624 0.1464166 8.560912 -3.233565 1.034206 23.76447 6.608753 3.45763 -19.03983 7.820948 5.071113 -19.98458 11.1907 78.07043 38.40035 -2.798089 -0 0 19.81551 -17.81879 8.598514 10.86092 3.658925 -15.90106 -0.7701357 -94.27331 16.4874 25.66289 -0 0 0.386269 9.651491 14.66792 -0.3305089
-273.6531 98.64488 2993.46 -0.02799798 -4.662089 -16.89704 1.675624 -24.44951 -2.699467 -0 6.952948 -0 -5.933622 1.964704 -5.734716 -5.635572 17.5737 -6.548256 -0 24.94556 -0 -2.30294 -17.92912 11.85251 -3.840003 -1.032908 6.404989 0.1449142 8.560199 -3.2302 1.03432 23.76702 6.608855 3.458613 -19.03543 7.820257 5.070573 -19.985 11.19025 78.06717 38.40307 -2.788197 -0 0 19.81632 -17.8221 8.596847 10.86232 3.656815 -15.89769 -0.7719086 -94.27496 16.48177 25.66613 -0 0 0.3989362 9.653847 14.66826 -0.3348548
-276.2782 98.47777 3000.159 -0.7930576 -4.824202 -16.81343 3.52917 -22.21201 -1.43861 -0 9.418861 -0 -6.740943 2.257589 -6.065104 -4.97992 17.18377 -6.097388 -0 33.75997 -0 -3.108044 -14.77797 11.93144 -3.841396 -1.031426 6.405342 0.1437996 8.55848 -3.22682 1.033787 23.76942 6.609868 3.459745 -19.03114 7.819662 5.0699 -19.98621 11.19019 78.06177 38.4043 -2.775783 -0 0 19.8191 -17.82702 8.594958 10.86544 3.655135 -15.89421 -0.7723366 -94.27745 16.47484 25.67077 -0 0 0.4138216 9.655971 14.66895 -0.3398267
-278.9641 99.05634 3006.834 -1.776512 -5.41655 -17.13844 5.334587 -18.72852 0.1271075 -0 12.79714 -0 -7.314344 1.788142 -6.371356 -4.178598 14.97819 -5.718892 -0 43.66355 -0 -3.827831 -11.18096 12.52364 -3.843124 -1.030644 6.40568 0.1430815 8.555747 -3.223433 1.032597 23.77167 6.611806 3.461022 -19.02697 7.819166 5.069092 -19.98821 11.19053 78.05422 38.40401 -2.76084 -0 0 19.82387 -17.8336 8.592855 10.87033 3.653899 -15.89062 -0.7713968 -94.28079 16.4666 25.67681 -0 0 0.4308945 9.657829 14.66997 -0.3453901
-281.5732 100.217 3013.273 -2.606132 -6.366191 -17.8903 6.486856 -14.06862 1.474807 -0 15.24744 -0 -7.509363 0.4726923 -6.499656 -3.468189 10.81778 -5.475295 -0 52.98113 -0 -4.506832 -8.107269 13.53675 -3.845165 -1.030538 6.406004 0.1427501 8.55205 -3.220058 1.03078 23.77376 6.614624 3.462434 -19.02294 7.818767 5.068158 -19.99097 11.19124 78.04464 38.40224 -2.743543 -0 0 19.83055 -17.84172 8.590551 10.87688 3.653094 -15.88695 -0.7691481 -94.28493 16.45716 25.68418 -0 0 0.4499908 9.659426 14.67132 -0.3514987
